<svg width="48" height="48" viewBox="0 0 48 48" fill="none" xmlns="http://www.w3.org/2000/svg">
<path fill-rule="evenodd" clip-rule="evenodd" d="M17.3784 0C14.1371 0 11.3958 2.4306 10.3761 5.79426C8.97485 5.87514 7.62185 6.4137 6.47312 7.34785C5.3244 8.28201 4.42672 9.57371 3.88362 11.074C3.35301 12.5588 3.1913 14.1862 3.4168 15.772C2.11852 16.9762 1.12943 18.5698 0.556862 20.3798C-0.0157054 22.1899 -0.149878 24.1472 0.168907 26.0394C0.584858 28.4862 1.7343 30.6832 3.41349 32.2409C3.22217 33.6164 3.32085 35.0251 3.70108 36.3467C4.08132 37.6683 4.73181 38.8636 5.59695 39.8303C6.89212 41.2638 8.58949 42.1075 10.3777 42.207C11.5365 46.0276 14.8407 48.462 18.3518 47.9263C20.8597 47.5424 22.9174 45.7127 24 43.2379C25.0826 45.7146 27.1403 47.5424 29.6482 47.9263C33.1577 48.462 36.4651 46.0276 37.6223 42.207C39.4105 42.1073 41.1078 41.2636 42.403 39.8303C43.2682 38.8636 43.9187 37.6683 44.2989 36.3467C44.6792 35.0251 44.7778 33.6164 44.5865 32.2409C46.2657 30.6832 47.4151 28.4862 47.8311 26.0394C48.1499 24.1472 48.0157 22.1899 47.4431 20.3798C46.8706 18.5698 45.8815 16.9762 44.5832 15.772C44.7984 14.215 44.6627 12.5907 44.1164 11.074C43.5731 9.57384 42.6754 8.28221 41.5267 7.34809C40.378 6.41396 39.0251 5.87536 37.6239 5.79426C36.6042 2.43252 33.8629 0 30.6216 0C27.7246 0 25.2316 1.95058 24 4.76131C22.7684 1.95058 20.2754 0 17.3784 0ZM17.3784 1.9199C20.5882 1.9199 23.1723 4.91686 23.1723 8.63954C23.1717 8.66066 23.1717 8.68171 23.1723 8.70282V39.3578C23.1737 40.897 22.7187 42.39 21.8837 43.5864C21.0487 44.7828 19.8845 45.61 18.5862 45.9291C17.2879 46.2482 15.9344 46.0399 14.7528 45.3392C13.5711 44.6385 12.6331 43.4879 12.096 42.0804C12.2914 42.0382 12.4884 42.0035 12.6837 41.9459C12.896 41.8802 13.0771 41.7195 13.1871 41.4989C13.2972 41.2784 13.3272 41.0163 13.2705 40.7701C13.2139 40.5239 13.0753 40.3137 12.8851 40.186C12.695 40.0584 12.4689 40.0236 12.2566 40.0893C11.2934 40.3873 10.2803 40.3928 9.31481 40.105C8.34932 39.8171 7.46401 39.2457 6.74414 38.4459C6.16055 37.7929 5.70187 37.0051 5.39786 36.1332C5.09385 35.2613 4.95131 34.325 4.97949 33.3851C5.53901 33.7153 6.12171 34.0091 6.74414 34.2011C6.9562 34.2673 7.18224 34.2331 7.37255 34.106C7.56285 33.9789 7.70183 33.7693 7.7589 33.5233C7.81598 33.2774 7.78648 33.0152 7.67689 32.7945C7.5673 32.5738 7.3866 32.4126 7.17455 32.3464C5.90036 31.9531 4.73927 31.1739 3.81026 30.0888C2.88125 29.0036 2.21773 27.6515 1.88772 26.1709C1.55771 24.6904 1.57308 23.1346 1.93223 21.6632C2.29139 20.1918 2.98143 18.8576 3.93162 17.7974C4.29747 18.788 4.80733 19.7193 5.48935 20.5122C5.5657 20.6039 5.65704 20.6771 5.75802 20.7274C5.859 20.7777 5.96761 20.8041 6.07751 20.8052C6.18742 20.8063 6.29641 20.782 6.39813 20.7337C6.49985 20.6854 6.59226 20.6141 6.66998 20.524C6.74769 20.4338 6.80915 20.3267 6.85077 20.2087C6.89239 20.0908 6.91333 19.9645 6.91237 19.837C6.91142 19.7096 6.88858 19.5834 6.84521 19.4663C6.80183 19.3492 6.73877 19.2434 6.65972 19.1548C5.89375 18.2678 5.3574 17.1497 5.11149 15.9272C4.86558 14.7046 4.91995 13.4266 5.26843 12.2381C5.61692 11.0496 6.24557 9.99817 7.0831 9.20295C7.92063 8.40774 8.93353 7.90066 10.0069 7.73912C9.97879 8.03863 9.92913 8.33236 9.92913 8.63954C9.92913 8.89414 10.0163 9.13823 10.1716 9.31826C10.3268 9.49828 10.5373 9.59949 10.7568 9.59949C10.9763 9.59949 11.1869 9.49828 11.3421 9.31826C11.4973 9.13823 11.5845 8.89414 11.5845 8.63954C11.5845 4.91686 14.1686 1.9199 17.3784 1.9199ZM30.6216 1.9199C33.8314 1.9199 36.4155 4.91686 36.4155 8.63954C36.4155 8.89414 36.5027 9.13823 36.6579 9.31826C36.8131 9.49828 37.0237 9.59949 37.2432 9.59949C37.4627 9.59949 37.6732 9.49828 37.8284 9.31826C37.9837 9.13823 38.0709 8.89414 38.0709 8.63954C38.0709 8.33236 38.0212 8.03863 37.9931 7.73912C39.0672 7.89929 40.081 8.40557 40.9193 9.20061C41.7576 9.99564 42.3869 11.0476 42.7355 12.2367C43.0842 13.4257 43.1383 14.7042 42.8916 15.9272C42.645 17.1501 42.1075 18.2684 41.3403 19.1548C41.2612 19.2434 41.1982 19.3492 41.1548 19.4663C41.1114 19.5834 41.0886 19.7096 41.0876 19.837C41.0867 19.9645 41.1076 20.0908 41.1492 20.2087C41.1908 20.3267 41.2523 20.4338 41.33 20.524C41.4077 20.6141 41.5001 20.6854 41.6019 20.7337C41.7036 20.782 41.8126 20.8063 41.9225 20.8052C42.0324 20.8041 42.141 20.7777 42.242 20.7274C42.343 20.6771 42.4343 20.6039 42.5106 20.5122C43.1927 19.7193 43.7025 18.788 44.0684 17.7974C45.0186 18.8576 45.7086 20.1918 46.0678 21.6632C46.4269 23.1346 46.4423 24.6904 46.1123 26.1709C45.7823 27.6515 45.1188 29.0036 44.1897 30.0888C43.2607 31.1739 42.0996 31.9531 40.8255 32.3464C40.6134 32.4126 40.4327 32.5738 40.3231 32.7945C40.2135 33.0152 40.184 33.2774 40.2411 33.5233C40.2982 33.7693 40.4371 33.9789 40.6275 34.106C40.8178 34.2331 41.0438 34.2673 41.2559 34.2011C41.8783 34.0091 42.461 33.7153 43.0205 33.3851C43.0487 34.325 42.9061 35.2613 42.6021 36.1332C42.2981 37.0051 41.8394 37.7929 41.2559 38.4459C40.536 39.2457 39.6507 39.8171 38.6852 40.105C37.7197 40.3928 36.7066 40.3873 35.7434 40.0893C35.5311 40.0236 35.305 40.0584 35.1149 40.186C34.9247 40.3137 34.7861 40.5239 34.7295 40.7701C34.6728 41.0163 34.7028 41.2784 34.8129 41.4989C34.9229 41.7195 35.104 41.8802 35.3163 41.9459C35.5116 42.0073 35.7086 42.0401 35.904 42.0804C35.3669 43.4879 34.4289 44.6385 33.2472 45.3392C32.0656 46.0399 30.7121 46.2482 29.4138 45.9291C28.1155 45.61 26.9513 44.7828 26.1163 43.5864C25.2813 42.39 24.8263 40.897 24.8277 39.3578V8.63954C24.8277 4.91494 27.4118 1.9199 30.6216 1.9199ZM17.2956 3.8398C17.0761 3.85253 16.87 3.96587 16.7225 4.1549C16.575 4.34392 16.4984 4.59308 16.5093 4.84767C16.5203 5.10227 16.618 5.34142 16.781 5.51244C16.944 5.68347 17.1589 5.77243 17.3784 5.7597C18.759 5.7597 19.8615 7.03835 19.8615 8.63954C19.8615 8.89414 19.9487 9.13823 20.1039 9.31826C20.2592 9.49828 20.4697 9.59949 20.6892 9.59949C20.9087 9.59949 21.1193 9.49828 21.2745 9.31826C21.4297 9.13823 21.5169 8.89414 21.5169 8.63954C21.5169 5.99968 19.6546 3.8398 17.3784 3.8398C17.3508 3.8382 17.3232 3.8382 17.2956 3.8398ZM30.6216 3.8398C29.5251 3.84385 28.4745 4.35082 27.6991 5.25007C26.9237 6.14933 26.4866 7.36782 26.4831 8.63954C26.4831 8.89414 26.5703 9.13823 26.7255 9.31826C26.8807 9.49828 27.0913 9.59949 27.3108 9.59949C27.5303 9.59949 27.7408 9.49828 27.8961 9.31826C28.0513 9.13823 28.1385 8.89414 28.1385 8.63954C28.1385 7.03835 29.241 5.7597 30.6216 5.7597C30.8411 5.7597 31.0516 5.65849 31.2069 5.47846C31.3621 5.29844 31.4493 5.05434 31.4493 4.79975C31.4493 4.54515 31.3621 4.30094 31.2069 4.12092C31.0516 3.94089 30.8411 3.8398 30.6216 3.8398ZM11.2419 11.2315C11.1097 11.2299 10.9791 11.2648 10.861 11.3337C10.743 11.4026 10.6408 11.5033 10.5632 11.6273C10.4856 11.7514 10.4347 11.8953 10.4148 12.0468C10.3949 12.1984 10.4066 12.3532 10.4489 12.4984C10.6211 13.0975 10.8661 13.6542 11.1409 14.188C10.1887 14.0303 9.22101 14.0486 8.27373 14.2419C8.16677 14.2646 8.06472 14.3115 7.97339 14.3799C7.88206 14.4483 7.80325 14.5368 7.74146 14.6405C7.67967 14.7443 7.6361 14.8613 7.61324 14.9846C7.59039 15.1078 7.58869 15.235 7.60826 15.3591C7.62782 15.4831 7.66826 15.6017 7.72727 15.7076C7.78628 15.8135 7.86269 15.9047 7.95216 15.9764C8.04162 16.0481 8.14238 16.0987 8.24868 16.1252C8.35498 16.1517 8.46475 16.1535 8.5717 16.1308C10.3124 15.7563 12.1111 16.1153 13.6438 17.1428C13.6585 17.1536 13.6734 17.1638 13.6885 17.1735C13.6941 17.1736 13.6996 17.1736 13.7051 17.1735C13.7203 17.183 13.7357 17.1918 13.7514 17.2002C13.7575 17.2003 13.7636 17.2003 13.7696 17.2002C13.7919 17.2103 13.8146 17.2194 13.8375 17.2272C13.8419 17.2272 13.8463 17.2272 13.8508 17.2272C13.8699 17.2344 13.8892 17.2408 13.9087 17.2464C13.9431 17.2554 13.9779 17.2618 14.013 17.2656C14.1155 17.2728 14.2182 17.2579 14.3159 17.2216C14.3237 17.2217 14.3314 17.2217 14.3391 17.2216C14.3837 17.2035 14.4269 17.1809 14.4682 17.1543C14.4749 17.148 14.4816 17.1416 14.4881 17.1351C14.529 17.107 14.5678 17.0748 14.604 17.039C14.6107 17.0327 14.6173 17.0263 14.6238 17.0198C14.6381 17.0037 14.6519 16.9871 14.6652 16.9698C14.6708 16.9635 14.6763 16.9571 14.6818 16.9506C14.7125 16.9099 14.7402 16.8662 14.7645 16.8201C14.7696 16.8125 14.7746 16.8049 14.7794 16.7971C14.7894 16.7783 14.7988 16.759 14.8076 16.7395C14.811 16.7312 14.8143 16.723 14.8175 16.7146C14.838 16.6639 14.8546 16.6112 14.8672 16.5571C14.8689 16.5495 14.8706 16.5419 14.8721 16.5342C14.8773 16.5107 14.8817 16.487 14.8854 16.4632C14.8866 16.4542 14.8877 16.4452 14.8887 16.4362C14.895 16.3815 14.8972 16.3264 14.8953 16.2712C14.8954 16.2623 14.8954 16.2532 14.8953 16.2443C14.8939 16.2205 14.8917 16.1968 14.8887 16.1732C14.8877 16.1656 14.8866 16.1577 14.8854 16.15C14.8732 16.0637 14.8509 15.9798 14.8192 15.9005C14.8154 15.8927 14.8115 15.8851 14.8076 15.8775C14.7989 15.856 14.7895 15.8349 14.7794 15.8142C14.7762 15.8078 14.7729 15.8013 14.7695 15.795C14.758 15.7746 14.7459 15.7548 14.7331 15.7355C14.7293 15.729 14.7254 15.7226 14.7215 15.7162C14.7089 15.6965 14.6956 15.6772 14.6818 15.6586C14.6774 15.6521 14.673 15.6457 14.6685 15.6394C14.6541 15.6234 14.6392 15.6082 14.6238 15.5934C14.6184 15.5869 14.6129 15.5805 14.6073 15.5742C14.5912 15.5588 14.5746 15.5439 14.5576 15.5299C14.5527 15.5234 14.5478 15.517 14.5427 15.5107C14.526 15.4972 14.5089 15.4846 14.4914 15.4725C13.3276 14.6465 12.4528 13.37 12.0215 11.8687C11.9675 11.6779 11.8632 11.5114 11.7233 11.393C11.5835 11.2745 11.4151 11.2099 11.2419 11.2083V11.2315ZM36.7581 11.2315C36.5854 11.2334 36.4175 11.2978 36.278 11.4159C36.1385 11.534 36.0343 11.6996 35.9801 11.8898C35.5483 13.3914 34.6729 14.6678 33.5086 15.4936C33.5008 15.4998 33.4931 15.5063 33.4854 15.5128C33.4759 15.519 33.4666 15.5254 33.4573 15.532C33.4517 15.5383 33.4462 15.5448 33.4407 15.5513C33.4237 15.5652 33.4071 15.5799 33.3911 15.5953C33.3815 15.6053 33.3721 15.6155 33.3629 15.626C33.3516 15.6372 33.3406 15.6486 33.3298 15.6605C33.3259 15.6668 33.322 15.6732 33.3182 15.6797C33.3044 15.6983 33.2911 15.7176 33.2785 15.7373C33.267 15.7535 33.256 15.7702 33.2454 15.7873C33.2396 15.7999 33.2341 15.8127 33.2288 15.8257C33.2196 15.8407 33.2108 15.8562 33.2023 15.8719C33.1977 15.8833 33.1933 15.8947 33.1891 15.9063C33.1857 15.9127 33.1824 15.9191 33.1792 15.9255C33.147 16.0067 33.1247 16.0925 33.113 16.1807C33.1122 16.1935 33.1116 16.2064 33.1113 16.2192C33.1088 16.2338 33.1066 16.2487 33.1047 16.2635C33.1046 16.2724 33.1046 16.2812 33.1047 16.2902C33.1031 16.3506 33.1064 16.411 33.1146 16.4707C33.1166 16.4835 33.1188 16.4963 33.1212 16.5091C33.1231 16.5239 33.1254 16.5387 33.1279 16.5534C33.13 16.5611 33.1322 16.5687 33.1345 16.5764C33.1479 16.6358 33.1662 16.6936 33.1891 16.7491C33.1945 16.7594 33.2 16.7697 33.2057 16.7798C33.2109 16.7927 33.2164 16.8056 33.2222 16.8182C33.226 16.826 33.2298 16.8338 33.2338 16.8414C33.2587 16.8876 33.2869 16.9313 33.3182 16.972C33.3237 16.9784 33.3292 16.9849 33.3348 16.9912C33.3481 17.0077 33.3619 17.0236 33.3762 17.039C33.3827 17.0455 33.3893 17.0519 33.396 17.0582C33.4321 17.0947 33.4709 17.1275 33.5119 17.1562C33.5184 17.1627 33.5251 17.1691 33.5318 17.1754C33.5812 17.2071 33.6334 17.2329 33.6874 17.2523C33.7841 17.2882 33.8856 17.303 33.987 17.2963C34.0221 17.2925 34.0569 17.2861 34.0913 17.2771C34.1108 17.2715 34.1301 17.2651 34.1492 17.2579C34.157 17.258 34.1647 17.258 34.1724 17.2579C34.192 17.251 34.2113 17.2434 34.2304 17.2349C34.237 17.235 34.2436 17.235 34.2502 17.2349C34.2687 17.2255 34.287 17.2152 34.3048 17.2042C34.311 17.1979 34.3171 17.1915 34.3231 17.185C34.3342 17.1776 34.3453 17.17 34.3562 17.162H34.3694C34.3716 17.162 34.3738 17.162 34.376 17.162C35.9051 16.1462 37.6952 15.7918 39.4283 16.1618C39.537 16.1845 39.6485 16.182 39.7564 16.1547C39.8643 16.1275 39.9665 16.0757 40.0572 16.0026C40.1479 15.9295 40.2253 15.8364 40.285 15.7287C40.3446 15.6209 40.3854 15.5006 40.405 15.3745C40.4245 15.2485 40.4225 15.1191 40.399 14.9939C40.3755 14.8688 40.3309 14.7504 40.2679 14.6452C40.2049 14.54 40.1246 14.4503 40.0317 14.3811C39.9387 14.3119 39.835 14.2646 39.7263 14.2419C38.7789 14.0486 37.8112 14.0309 36.8591 14.1898C37.1339 13.6542 37.3789 13.0975 37.5511 12.4984C37.5934 12.3532 37.6051 12.1984 37.5852 12.0468C37.5653 11.8953 37.5144 11.7514 37.4368 11.6273C37.3592 11.5033 37.257 11.4026 37.139 11.3337C37.0209 11.2648 36.8903 11.2299 36.7581 11.2315ZM18.2177 14.8676C18.0742 14.874 17.9346 14.9238 17.8126 15.0117C17.6906 15.0997 17.5905 15.2227 17.522 15.3692C17.4535 15.5156 17.4191 15.6802 17.4221 15.8468C17.4251 16.0133 17.4653 16.176 17.539 16.319C18.087 17.4171 18.3068 18.6944 18.1643 19.9523C18.0218 21.2103 17.525 22.3783 16.751 23.2749C16.672 23.3635 16.6089 23.4693 16.5655 23.5864C16.5222 23.7035 16.4993 23.8297 16.4984 23.9571C16.4974 24.0846 16.5183 24.2109 16.56 24.3288C16.6016 24.4468 16.663 24.5539 16.7408 24.6441C16.8185 24.7342 16.9109 24.8055 17.0126 24.8538C17.1143 24.9021 17.2233 24.9264 17.3332 24.9253C17.4431 24.9242 17.5517 24.8978 17.6527 24.8475C17.7537 24.7972 17.845 24.724 17.9214 24.6323C18.9513 23.4358 19.6127 21.8791 19.8033 20.2029C19.9939 18.5267 19.7031 16.8243 18.9759 15.3591C18.9013 15.204 18.7911 15.076 18.6575 14.9892C18.524 14.9025 18.3707 14.8604 18.2177 14.8676ZM29.6962 14.8676C29.5576 14.8776 29.4234 14.928 29.306 15.0139C29.1886 15.0997 29.0916 15.2183 29.0241 15.3591C28.2969 16.8243 28.0061 18.5267 28.1967 20.2029C28.3873 21.8791 29.0487 23.4358 30.0786 24.6323C30.155 24.724 30.2463 24.7972 30.3473 24.8475C30.4483 24.8978 30.5569 24.9242 30.6668 24.9253C30.7767 24.9264 30.8857 24.9021 30.9874 24.8538C31.0891 24.8055 31.1815 24.7342 31.2592 24.6441C31.337 24.5539 31.3984 24.4468 31.44 24.3288C31.4817 24.2109 31.5026 24.0846 31.5016 23.9571C31.5007 23.8297 31.4778 23.7035 31.4345 23.5864C31.3911 23.4693 31.328 23.3635 31.249 23.2749C30.4747 22.3785 29.9776 21.2105 29.8348 19.9526C29.692 18.6947 29.9116 17.4173 30.4594 16.319C30.533 16.176 30.5733 16.0133 30.5763 15.8468C30.5792 15.6802 30.5448 15.5156 30.4763 15.3692C30.4079 15.2227 30.3077 15.0997 30.1857 15.0117C30.0638 14.9238 29.9242 14.874 29.7806 14.8676C29.7531 14.866 29.7238 14.866 29.6962 14.8676ZM4.35044 23.8048C4.32287 23.8032 4.29524 23.8032 4.26767 23.8048C4.14551 23.8159 4.02699 23.8583 3.92068 23.929C3.81436 23.9997 3.7229 24.0967 3.6529 24.2133C3.5829 24.3299 3.5361 24.4633 3.51588 24.6035C3.49566 24.7437 3.50253 24.8872 3.53598 25.024C3.83663 26.3271 4.42751 27.5154 5.24932 28.47C5.32567 28.5617 5.417 28.6349 5.51799 28.6852C5.61897 28.7355 5.72758 28.7621 5.83748 28.7632C5.94738 28.7643 6.05637 28.74 6.1581 28.6917C6.25982 28.6435 6.35223 28.5721 6.42994 28.482C6.50766 28.3918 6.56912 28.2847 6.61074 28.1668C6.65235 28.0488 6.6733 27.9223 6.67234 27.7948C6.67139 27.6674 6.64855 27.5414 6.60517 27.4243C6.5618 27.3072 6.49874 27.2014 6.41969 27.1128C5.8029 26.3972 5.35931 25.5059 5.13344 24.5285C5.08901 24.3252 4.98841 24.1446 4.84701 24.0139C4.70562 23.8831 4.53121 23.8097 4.35044 23.8048ZM43.6529 23.8048C43.4714 23.81 43.2965 23.8841 43.155 24.016C43.0136 24.1478 42.9134 24.33 42.8699 24.5344C42.6437 25.511 42.2002 26.4015 41.5836 27.1166C41.5046 27.2051 41.4415 27.3112 41.3981 27.4283C41.3548 27.5454 41.3319 27.6713 41.331 27.7988C41.33 27.9263 41.351 28.0525 41.3926 28.1705C41.4342 28.2885 41.4956 28.3958 41.5734 28.486C41.6511 28.5761 41.7435 28.6472 41.8452 28.6955C41.9469 28.7437 42.0559 28.7681 42.1658 28.767C42.2757 28.7659 42.3843 28.7395 42.4853 28.6892C42.5863 28.6388 42.6776 28.5657 42.754 28.474C43.5758 27.5194 44.1667 26.3308 44.4673 25.0277C44.5008 24.8911 44.5077 24.7478 44.4875 24.6077C44.4674 24.4677 44.4208 24.3346 44.3509 24.218C44.2811 24.1014 44.1899 24.004 44.0838 23.9332C43.9776 23.8625 43.8593 23.8199 43.7373 23.8085C43.7097 23.8069 43.6821 23.8069 43.6545 23.8085L43.6529 23.8048ZM15.7313 32.6403C15.6558 32.6399 15.5806 32.6514 15.5078 32.6747C15.5067 32.6747 15.5056 32.6747 15.5045 32.6747C15.4979 32.6746 15.4913 32.6746 15.4846 32.6747C15.4651 32.6816 15.4458 32.6892 15.4267 32.6977C15.3855 32.7164 15.3456 32.7389 15.3075 32.765C15.3053 32.7649 15.3031 32.7649 15.3009 32.765C13.7675 33.7902 11.9694 34.1488 10.2288 33.7767C10.1209 33.754 10.0103 33.7561 9.9032 33.783C9.79609 33.8099 9.69461 33.8611 9.60453 33.9335C9.51445 34.0059 9.43754 34.098 9.37821 34.2049C9.31887 34.3117 9.27826 34.4311 9.25869 34.5562C9.23913 34.6812 9.24099 34.8095 9.26418 34.9337C9.28736 35.058 9.33142 35.1757 9.39383 35.2801C9.45624 35.3846 9.53578 35.4738 9.62791 35.5426C9.72004 35.6114 9.82296 35.6587 9.93078 35.6814C10.8859 35.8849 11.851 35.8789 12.7979 35.7292C12.5231 36.2648 12.2781 36.8236 12.106 37.4245C12.0366 37.6664 12.0529 37.9304 12.1513 38.1583C12.2497 38.3863 12.4222 38.5595 12.6307 38.64C12.8393 38.7204 13.0668 38.7014 13.2633 38.5872C13.4599 38.4731 13.6092 38.2732 13.6786 38.0313C14.1073 36.5376 14.9748 35.2667 16.1286 34.4411C16.1331 34.4348 16.1375 34.4284 16.1418 34.4219C16.1435 34.4181 16.1468 34.4219 16.1485 34.4219C16.166 34.4098 16.1831 34.397 16.1998 34.3835C16.2054 34.3772 16.2109 34.3707 16.2163 34.3642C16.2334 34.3496 16.2499 34.3342 16.266 34.3181C16.271 34.3118 16.276 34.3053 16.2809 34.2989C16.2963 34.2835 16.3112 34.2677 16.3256 34.251C16.3267 34.251 16.3278 34.251 16.3289 34.251C16.44 34.1151 16.5145 33.9443 16.543 33.7598C16.5714 33.5754 16.5528 33.3853 16.4892 33.2131C16.4257 33.0408 16.3201 32.8938 16.1854 32.7903C16.0507 32.6868 15.8929 32.6314 15.7313 32.6307V32.6403ZM32.2356 32.6403C32.077 32.6485 31.9238 32.7094 31.7942 32.8158C31.6647 32.9222 31.5642 33.0697 31.5049 33.2405C31.4456 33.4113 31.4299 33.5982 31.4596 33.779C31.4894 33.9599 31.5634 34.1272 31.6728 34.2607C31.6744 34.2606 31.6761 34.2606 31.6777 34.2607C31.6832 34.2671 31.6887 34.2733 31.6943 34.2796C31.7231 34.3136 31.7541 34.3452 31.787 34.3739C31.8109 34.3939 31.8358 34.4124 31.8615 34.4294C33.0222 35.2575 33.8944 36.5335 34.3247 38.0332C34.3592 38.1529 34.4136 38.2636 34.485 38.359C34.5563 38.4543 34.6432 38.5324 34.7405 38.5889C34.8379 38.6453 34.9439 38.6789 35.0525 38.6878C35.1611 38.6967 35.2701 38.6809 35.3734 38.6409C35.4767 38.6009 35.5721 38.5378 35.6543 38.455C35.7366 38.3723 35.8039 38.2715 35.8526 38.1586C35.9012 38.0456 35.9302 37.9227 35.9379 37.7967C35.9456 37.6708 35.9318 37.5443 35.8973 37.4245C35.7205 36.832 35.4885 36.2634 35.2054 35.7292C36.1573 35.8887 37.125 35.8727 38.0725 35.6814C38.1797 35.6587 38.282 35.6116 38.3735 35.5431C38.465 35.4746 38.544 35.3857 38.606 35.2818C38.6679 35.1778 38.7116 35.0608 38.7345 34.9373C38.7575 34.8137 38.7592 34.6863 38.7397 34.562C38.7201 34.4377 38.6796 34.319 38.6205 34.2128C38.5614 34.1067 38.4849 34.0152 38.3953 33.9433C38.3057 33.8715 38.2047 33.8209 38.0982 33.7943C37.9917 33.7677 37.8817 33.7655 37.7746 33.7882C36.0339 34.1627 34.2351 33.804 32.7024 32.7764C32.7002 32.7764 32.698 32.7764 32.6958 32.7764C32.6577 32.7504 32.6178 32.7278 32.5766 32.7092C32.5575 32.7007 32.5382 32.6931 32.5187 32.6862C32.5109 32.6861 32.5032 32.6861 32.4955 32.6862C32.4944 32.6862 32.4933 32.6862 32.4922 32.6862C32.4402 32.67 32.387 32.6597 32.3333 32.6555C32.3013 32.6533 32.2692 32.6533 32.2373 32.6555L32.2356 32.6403ZM20.6776 38.3882C20.4587 38.3923 20.25 38.4968 20.0974 38.6789C19.9447 38.8609 19.8605 39.106 19.8632 39.3599C19.8632 40.9611 18.7607 42.2398 17.3801 42.2398C17.1605 42.2398 16.95 42.3407 16.7948 42.5208C16.6396 42.7008 16.5524 42.9451 16.5524 43.1997C16.5524 43.4543 16.6396 43.6984 16.7948 43.8784C16.95 44.0585 17.1605 44.1597 17.3801 44.1597C19.6562 44.1597 21.5186 41.9998 21.5186 39.3599C21.5199 39.2316 21.499 39.1042 21.4572 38.9854C21.4154 38.8666 21.3534 38.7586 21.275 38.6681C21.1966 38.5775 21.1034 38.5061 21.0008 38.4581C20.8981 38.41 20.7883 38.3862 20.6776 38.3882ZM27.2446 38.3882C27.0353 38.4082 26.8404 38.5198 26.6993 38.7002C26.5582 38.8806 26.4815 39.1164 26.4847 39.3599C26.4847 41.9998 28.3471 44.1597 30.6232 44.1597C30.8428 44.1597 31.0533 44.0585 31.2085 43.8784C31.3637 43.6984 31.4509 43.4543 31.4509 43.1997C31.4509 42.9451 31.3637 42.7008 31.2085 42.5208C31.0533 42.3407 30.8428 42.2398 30.6232 42.2398C29.2426 42.2398 28.1401 40.9611 28.1401 39.3599C28.1428 39.106 28.0586 38.8609 27.9059 38.6789C27.7533 38.4968 27.5446 38.3923 27.3257 38.3882C27.2987 38.3867 27.2716 38.3867 27.2446 38.3882Z" fill="url(#paint0_linear_5_7)"/>
<defs>
<linearGradient id="paint0_linear_5_7" x1="-7.24236" y1="23.5188" x2="148.5" y2="24" gradientUnits="userSpaceOnUse">
<stop stop-color="#B95941"/>
<stop offset="1" stop-color="#EC8C74" stop-opacity="0.85"/>
</linearGradient>
</defs>
</svg>
